<?xml version="1.0" encoding="iso-8859-1"?>
<!-- Uploaded to: SVG Repo, www.svgrepo.com, Generator: SVG Repo Mixer Tools -->
<svg fill="#000000" height="800px" width="800px" version="1.1" id="Layer_1" xmlns="http://www.w3.org/2000/svg" xmlns:xlink="http://www.w3.org/1999/xlink" 
	 viewBox="0 0 511.309 511.309" xml:space="preserve">
<g>
	<g>
		<g>
			<path d="M148.988,84.643c-11.776,0-21.333,9.557-21.333,21.333s9.557,21.333,21.333,21.333s21.333-9.557,21.333-21.333
				S160.764,84.643,148.988,84.643z"/>
			<path d="M404.881,105.976h-24.128c-9.045-36.8-40.96-69.333-89.664-89.515C242.385-3.741,178.876-8.904,140.839,21.475
				C85.884,25.72,42.321,71.288,42.321,127.309c0,23.851,8.149,45.675,21.44,63.467c0,0.192-0.107,0.341-0.107,0.533v64
				c0,9.195,5.867,17.344,14.592,20.245l22.613,7.531L73.148,301.56c-5.931,3.968-9.493,10.624-9.493,17.749
				s3.563,13.781,9.493,17.749l37.376,24.917l-37.376,24.917c-5.931,3.968-9.493,10.624-9.493,17.749v42.667
				c0,7.125,3.563,13.781,9.493,17.749l64,42.667c3.584,2.389,7.723,3.584,11.84,3.584s8.256-1.195,11.84-3.584l64-42.667
				c5.931-3.968,9.493-10.624,9.493-17.749v-256c0-0.192-0.107-0.341-0.107-0.533c13.291-17.792,21.44-39.616,21.44-63.467
				c0-34.624-16.853-65.152-42.496-84.651c19.072,0.256,40.683,4.565,61.611,13.227c24.597,10.197,50.347,27.797,61.013,50.091
				h-16.021c-35.349,0-64.107,28.757-64.107,64.107v170.453c0,35.349,28.757,64.107,64.107,64.107h85.12
				c35.349,0,64.107-28.757,64.107-64.107V170.083C468.988,134.733,440.231,105.976,404.881,105.976z M148.988,191.309
				c-35.285,0-64-28.715-64-64s28.715-64,64-64s64,28.715,64,64S184.273,191.309,148.988,191.309z M383.655,319.309
				c0,11.776-9.536,21.333-21.333,21.333c-11.797,0-21.333-9.557-21.333-21.333v-64c0-11.776,9.536-21.333,21.333-21.333
				c11.797,0,21.333,9.557,21.333,21.333V319.309z M362.321,212.643c-11.776,0-21.333-9.557-21.333-21.333
				s9.557-21.333,21.333-21.333s21.333,9.557,21.333,21.333S374.097,212.643,362.321,212.643z"/>
		</g>
	</g>
</g>
</svg>