<?xml version="1.0" encoding="utf-8"?><!-- Uploaded to: SVG Repo, www.svgrepo.com, Generator: SVG Repo Mixer Tools -->
<svg width="800px" height="800px" viewBox="-0.5 0 25 25" fill="none" xmlns="http://www.w3.org/2000/svg">
<path d="M17.5 21.92C18.6263 21.9829 19.7318 21.5974 20.575 20.848C21.4181 20.0985 21.9304 19.0459 22 17.92V7.91998C21.9304 6.79403 21.4181 5.74147 20.575 4.992C19.7318 4.24253 18.6263 3.85707 17.5 3.91998H6.5C5.37366 3.85707 4.26814 4.24253 3.42499 4.992C2.58184 5.74147 2.06958 6.79403 2 7.91998" stroke="#000000" stroke-width="1.5" stroke-linecap="round" stroke-linejoin="round"/>
<path d="M12.6094 19.24C12.0403 17.35 11.0092 15.6316 9.60938 14.24C8.22098 12.8361 6.50146 11.8044 4.60938 11.24" stroke="#000000" stroke-width="1.5" stroke-linecap="round" stroke-linejoin="round"/>
<path d="M5.10077 21.9199C4.93867 21.1714 4.56508 20.4851 4.02441 19.9426C3.48375 19.4002 2.79876 19.0244 2.05078 18.8599" stroke="#000000" stroke-width="1.5" stroke-linecap="round" stroke-linejoin="round"/>
<path d="M8.83984 20.5798C8.46814 19.2691 7.76782 18.0751 6.8053 17.1108C5.84277 16.1466 4.64994 15.4439 3.33984 15.0698" stroke="#000000" stroke-width="1.5" stroke-linecap="round" stroke-linejoin="round"/>
</svg>